/* XPM */
static char *cropping_tk[] = {
/* columns rows colors chars-per-pixel */
"32 32 2 1 ",
"  c red",
". c None",
/* pixels */
"................................",
"................................",
"................................",
"....     .     .................",
"...             ................",
"....            ................",
"...             ................",
"...             ................",
"...             ................",
"...             ................",
"...             ................",
"....            ................",
"...             ................",
"...             ...          ...",
"...             ...          ...",
"...             ...         ....",
"...             ...          ...",
"...             ...          ...",
"...             ...          ...",
"...................         ....",
"...................          ...",
"...................          ...",
".....  . ...........         ...",
"...       .........         ....",
"...      ..........          ...",
".....  . ...........         ...",
"...................          ...",
"...................         ....",
".................... .    .  ...",
"................................",
"................................",
"................................"
};
